<svg xmlns="http://www.w3.org/2000/svg" width="24" height="24" viewBox="0 0 24 24">
  <g id="MDI_credit-card-edit-outline" data-name="MDI / credit-card-edit-outline" transform="translate(-1628 -131)" opacity="0.6">
    <g id="Boundary" transform="translate(1628 131)" stroke="rgba(0,0,0,0)" stroke-width="1" opacity="0">
      <rect width="24" height="24" stroke="none"/>
      <rect x="0.5" y="0.5" width="23" height="23" fill="none"/>
    </g>
    <path id="Path_credit-card-edit-outline" data-name="Path / credit-card-edit-outline" d="M13,18.9l6.1-6.1,2.1,2.1L15.1,21H13V18.9m8.4-7.6,1.3,1.3a.483.483,0,0,1,0,.7l-1,1-2.1-2,1-1a.5.5,0,0,1,.8,0M11,18H4V12H17.1L22,7.1V6a2.006,2.006,0,0,0-2-2H4A2.006,2.006,0,0,0,2,6V18a2.006,2.006,0,0,0,2,2h7V18M4,6H20V8H4Z" transform="translate(1627 131)"/>
  </g>
</svg>
