<svg xmlns="http://www.w3.org/2000/svg" width="36.483" height="31.89" viewBox="0 0 36.483 31.89">
  <g id="Group_7337" data-name="Group 7337" transform="translate(7575.95 13589.584)">
    <path id="Path_699" data-name="Path 699" d="M-7647.668-13557.49v-4.262h23.828v4.262h4.13V-13570s.477-2.719-4.13-2.538-15.091.635-15.091.635-4.209,7.795-8.737,0-6.354-2.72-6.354-2.72v17.133Z" transform="translate(79.217 -1.204)" fill="none" stroke="#373737" stroke-width="2"/>
    <path id="Path_700" data-name="Path 700" d="M-7574.691-13574.791s6.717-4.6,12.02,2.711" transform="translate(3.526 -1.256)" fill="none" stroke="#373737" stroke-width="2"/>
    <g id="Path_701" data-name="Path 701" transform="matrix(0.914, -0.407, 0.407, 0.914, -7575.95, -13586.254)" fill="none">
      <path d="M4.094,0A4.34,4.34,0,0,1,8.188,4.549c0,2.512-1.833,5.062-4.094,5.062S0,7.061,0,4.549A4.34,4.34,0,0,1,4.094,0Z" stroke="none"/>
      <path d="M 4.094162464141846 1.999999046325684 C 2.93944263458252 1.999999046325684 2.000002384185791 3.143508911132812 2.000002384185791 4.549068927764893 C 2.000002384185791 6.037009239196777 3.076442241668701 7.610798835754395 4.094162464141846 7.610798835754395 C 5.111882209777832 7.610798835754395 6.1883225440979 6.037009239196777 6.1883225440979 4.549068927764893 C 6.1883225440979 3.143508911132812 5.248882293701172 1.999999046325684 4.094162464141846 1.999999046325684 M 4.094162464141846 -9.5367431640625e-07 C 6.355302333831787 -9.5367431640625e-07 8.188322067260742 2.036688804626465 8.188322067260742 4.549068927764893 C 8.188322067260742 7.06144905090332 6.355302333831787 9.610798835754395 4.094162464141846 9.610798835754395 C 1.833022594451904 9.610798835754395 2.86102294921875e-06 7.06144905090332 2.86102294921875e-06 4.549068927764893 C 2.86102294921875e-06 2.036688804626465 1.833022594451904 -9.5367431640625e-07 4.094162464141846 -9.5367431640625e-07 Z" stroke="none" fill="#373737"/>
    </g>
    <g id="Group_1973" data-name="Group 1973" transform="translate(-7558.247 -13587.459)">
      <line id="Line_190" data-name="Line 190" y2="10.008" transform="translate(5.004)" fill="none" stroke="#373737" stroke-width="2"/>
      <line id="Line_191" data-name="Line 191" y2="10.008" transform="translate(10.008 5.004) rotate(90)" fill="none" stroke="#373737" stroke-width="2"/>
    </g>
  </g>
</svg>
