<svg id="MDI_google-spreadsheet" data-name="MDI / google-spreadsheet" xmlns="http://www.w3.org/2000/svg" width="90.07" height="90.07" viewBox="0 0 90.07 90.07">
  <g id="Boundary" fill="#444" stroke="rgba(0,0,0,0)" stroke-width="1" opacity="0">
    <rect width="90.07" height="90.07" stroke="none"/>
    <rect x="0.5" y="0.5" width="89.07" height="89.07" fill="none"/>
  </g>
  <path id="Path_google-spreadsheet" data-name="Path / google-spreadsheet" d="M63.047,33.023V25.518H33.023V10.506H25.518V25.518H10.506v7.506H25.518V63.047h7.506V33.023H63.047M63.047,3a7.158,7.158,0,0,1,5.217,2.289,7.158,7.158,0,0,1,2.289,5.217V63.047a7.839,7.839,0,0,1-7.506,7.506H10.506a7.158,7.158,0,0,1-5.217-2.289A7.158,7.158,0,0,1,3,63.047V10.506A7.158,7.158,0,0,1,5.289,5.289,7.158,7.158,0,0,1,10.506,3Z" transform="translate(8.259 8.259)" fill="#2fa634"/>
</svg>
