<svg xmlns="http://www.w3.org/2000/svg" width="24" height="20.974" viewBox="0 0 24 20.974">
  <g id="Group_2656" data-name="Group 2656" transform="translate(9074 4190)">
    <path id="Union_4" data-name="Union 4" d="M3,20.974V10H0L12,0,24,10H21V20.974Z" transform="translate(-9074 -4190)" fill="#727272"/>
    <path id="Icon_awesome-plus" data-name="Icon awesome-plus" d="M8.681,5.923h-3v-3a.668.668,0,0,0-.668-.668H4.34a.668.668,0,0,0-.668.668v3h-3A.668.668,0,0,0,0,6.59v.668a.668.668,0,0,0,.668.668h3v3a.668.668,0,0,0,.668.668h.668a.668.668,0,0,0,.668-.668v-3h3a.668.668,0,0,0,.668-.668V6.59A.668.668,0,0,0,8.681,5.923Z" transform="translate(-9066.674 -4184.351)" fill="#fff"/>
  </g>
</svg>
