<svg xmlns="http://www.w3.org/2000/svg" width="451" height="296.909" viewBox="0 0 451 296.909">
  <g id="Group_4614" data-name="Group 4614" transform="translate(-0.011 0)">
    <path id="Path_1815" data-name="Path 1815" d="M408.351,259.7q-.78,4.1-1.87,8.115c-.079.311-.167.617-.255.928h-10.11a3.252,3.252,0,0,0-3.248,3.248V300.81c-.306.571-.617,1.137-.928,1.7-1.605,2.923-3.276,5.814-4.983,8.667A329.5,329.5,0,0,1,273.885,424.187l2.747-6.2-3.025-.209c-21.924-1.5-43.922-3.16-65.331-8.087-22.4-5.155-44.307-14.1-61.86-28.921s-30.429-36.006-32.215-58.918a67.225,67.225,0,0,1,2.353-23.39c4.115-14.625,13.108-27.784,26.081-35.57,20.379-12.226,46.961-9.735,68.444.436s38.962,27,56.032,43.532a216.418,216.418,0,0,0-70.022-73.089c-9.54-6.106-19.664-11.544-27.775-19.455s-14.087-18.991-12.653-30.225c1.629-12.741,12.064-22.411,22.518-29.867,4.176-2.979,8.486-5.8,12.932-8.4,12.542-7.35,26.109-12.894,40.437-14.95,19.409-2.789,40.372,1.443,55.253,14.212,16.764,14.389,23.64,37.593,22.986,59.791,10.328-15.015,26.257-26.508,44.247-27,18.676-.5,36.428,11.3,45.782,27.473S411.845,241.344,408.351,259.7Z" transform="translate(-113.998 -130.052)" fill="#fcd4e6"/>
    <path id="Path_1816" data-name="Path 1816" d="M492.825,385.042c10.938-.963,21.043-2.089,31.643-5.088,10.274-2.907,20.161-7.774,27.475-15.721,7.867-8.548,12.114-19.648,15.11-30.7,1.67-6.161,3.043-12.408,4.338-18.657q2.108-10.171,3.746-20.431,3.26-20.424,4.655-41.089.168-2.508.309-5.018c.058-1.032-1.548-1.029-1.605,0q-1.146,20.369-4.123,40.58c-1.958,13.238-4.464,26.418-7.643,39.419-2.693,11.014-6.18,22.2-13.087,31.367-6.477,8.6-15.832,14.216-25.934,17.575-10.279,3.418-21.117,4.783-31.858,5.8-1.318.124-1.708.243-3.026.359-1.021.09-1.031,1.7,0,1.605Z" transform="translate(-316.632 -193.039)" fill="#fff"/>
    <path id="Path_1817" data-name="Path 1817" d="M120.6,493.7a174,174,0,0,1,40.693,7.171,175.856,175.856,0,0,1,37.9,16.5A171.569,171.569,0,0,1,231.1,541.4a175.794,175.794,0,0,1,24.929,29.725,174.048,174.048,0,0,1,17.839,34.583q.848,2.232,1.633,4.487c.338.969,1.89.552,1.548-.427a175.687,175.687,0,0,0-17.042-35.443,177.974,177.974,0,0,0-24.453-30.805,173.516,173.516,0,0,0-31.218-24.913,177.208,177.208,0,0,0-78.682-26.158q-2.527-.212-5.059-.348c-1.032-.057-1.029,1.549,0,1.605Z" transform="translate(-117.114 -324.11)" fill="#fff"/>
    <path id="Path_1818" data-name="Path 1818" d="M282.621,166.258a94.562,94.562,0,0,1,24.824,12.131,116.578,116.578,0,0,1,21.192,18.82,156.019,156.019,0,0,1,17.548,24.184,206.326,206.326,0,0,1,13.952,28.367A256.672,256.672,0,0,1,370.3,280.613a290.081,290.081,0,0,1,9.294,64.655,256.821,256.821,0,0,1-.918,31.1A198.089,198.089,0,0,1,374,405a135.283,135.283,0,0,1-8.424,24.757q-1.251,2.71-2.655,5.346c-.486.912.9,1.724,1.386.81a123.749,123.749,0,0,0,9.481-23.863,184.8,184.8,0,0,0,5.654-28.071,244.234,244.234,0,0,0,1.868-31.036,284.774,284.774,0,0,0-1.943-32.613,293.775,293.775,0,0,0-5.656-32.587A265.918,265.918,0,0,0,364.259,256a220.827,220.827,0,0,0-13.15-29.206,169.308,169.308,0,0,0-16.862-25.451,125.55,125.55,0,0,0-20.6-20.414A99.614,99.614,0,0,0,289.489,167q-3.177-1.264-6.441-2.287c-.988-.311-1.411,1.239-.427,1.548Z" transform="translate(-204.075 -148.607)" fill="#fff"/>
    <ellipse id="Ellipse_290" data-name="Ellipse 290" cx="114.839" cy="4.64" rx="114.839" ry="4.64" transform="translate(58.935 287.629)" fill="#e6e6e6"/>
    <path id="Path_1819" data-name="Path 1819" d="M672.454,442.4a4.881,4.881,0,0,0-.111.761l-19.932,11.5-4.845-2.789-5.165,6.761,10.364,7.387,22.739-17.939a4.87,4.87,0,1,0-3.051-5.68Z" transform="translate(-397.218 -295.456)" fill="#ffb8b8"/>
    <path id="Path_1820" data-name="Path 1820" d="M606.341,448.984l15.694,11.186,7.019-8.8L613.8,439.127a6.182,6.182,0,0,0-8.9,1.234h0A6.182,6.182,0,0,0,606.341,448.984Z" transform="translate(-376.499 -294.988)" fill="#6c63ff"/>
    <path id="Path_1821" data-name="Path 1821" d="M425.519,582.438l5.5,1.442,8.18-20.538-8.121-2.128Z" transform="translate(-228.074 -300.812)" fill="#ffb8b8"/>
    <path id="Path_1822" data-name="Path 1822" d="M0,0H17.878V6.907H6.908A6.907,6.907,0,0,1,0,0H0Z" transform="matrix(-0.967, -0.253, 0.253, -0.967, 212.222, 290.959)" fill="#2f2e41"/>
    <path id="Path_1823" data-name="Path 1823" d="M526.485,588.744l5.6-1-1.193-22.076-8.265,1.476Z" transform="translate(-280.124 -303.2)" fill="#ffb8b8"/>
    <path id="Path_1824" data-name="Path 1824" d="M0,0H17.878V6.907H6.908A6.907,6.907,0,0,1,0,0H0Z" transform="translate(263.687 287.815) rotate(169.872)" fill="#2f2e41"/>
    <path id="Path_1825" data-name="Path 1825" d="M609.887,393.947c1.38.336,2.5,1.742,3.177,3.371a23.519,23.519,0,0,1,1.255,5.3c.53,3.367,1.038,7.012-.057,10.131-1.284,3.655-4.706,5.569-7.674,4.67s-5.329-4.276-6.135-8.164a19.77,19.77,0,0,1,1.357-11.639,9.464,9.464,0,0,1,3.55-4.557,3.5,3.5,0,0,1,4.672.973" transform="translate(-374.553 -270.752)" fill="#2f2e41"/>
    <path id="Path_1826" data-name="Path 1826" d="M584.134,526.948l10.661,95.488-8.805,3.344-16.24-64.031-22.61,58.546-9.638.535s13.224-91.1,23.024-93.168Z" transform="translate(-340.992 -342.79)" fill="#2f2e41"/>
    <circle id="Ellipse_291" data-name="Ellipse 291" cx="11.396" cy="11.396" r="11.396" transform="translate(222.791 112.589)" fill="#ffb8b8"/>
    <path id="Path_1827" data-name="Path 1827" d="M604.812,430.272,592.5,428.666S584.465,438.3,585,454.9s-1.339,21.686-1.339,21.686l25.678.464C605.627,471.948,621.153,442.635,604.812,430.272Z" transform="translate(-365.733 -290.11)" fill="#6c63ff"/>
    <path id="Path_1828" data-name="Path 1828" d="M611.736,508.444a4.888,4.888,0,0,0-.766.066l-15.755-16.772,1.606-5.354-7.764-3.48-4.819,11.78,22.667,18.031a4.87,4.87,0,1,0,4.831-4.27Z" transform="translate(-366.042 -319.182)" fill="#ffb8b8"/>
    <path id="Path_1829" data-name="Path 1829" d="M597.882,441.751l-7.3,17.838,10.173,4.819,8.425-17.653a6.182,6.182,0,0,0-3.239-8.385h0a6.182,6.182,0,0,0-8.063,3.381Z" transform="translate(-369.444 -295.064)" fill="#6c63ff"/>
    <path id="Path_1830" data-name="Path 1830" d="M591.226,391.4c1.786-1.03,1.976-3.515,1.734-5.562s-.648-4.329.555-6c1.436-2,4.322-2.038,6.781-2.1s5.455-.785,6.092-3.162a4.235,4.235,0,0,0-1.773-4.241,12.44,12.44,0,0,0-4.482-1.836c-3.517-.926-7.148-1.861-10.749-1.352a13.7,13.7,0,0,0-11.675,15.3c.583,4.571,1.428,6.567.873,8.582-1.033,3.754-5.49,6.165-5.578,10.058-.069,3.045,2.62,5.394,5.244,6.94a17.6,17.6,0,0,0,6.726,2.554,8.576,8.576,0,0,0,6.768-1.888c2.3-2.1,2.875-5.6,2.214-8.645s-2.356-5.749-4.033-8.375" transform="translate(-360.02 -257.058)" fill="#2f2e41"/>
    <path id="Path_1831" data-name="Path 1831" d="M881.895,426.948H717.176A4.182,4.182,0,0,0,713,431.124V536.915a4.182,4.182,0,0,0,4.176,4.176H881.895a4.182,4.182,0,0,0,4.176-4.176V431.124A4.182,4.182,0,0,0,881.895,426.948Zm3.248,109.967a3.251,3.251,0,0,1-3.248,3.248H717.176a3.252,3.252,0,0,1-3.248-3.248V431.124a3.251,3.251,0,0,1,3.248-3.248H881.895a3.252,3.252,0,0,1,3.248,3.248Z" transform="translate(-435.059 -289.189)" fill="#3f3d56"/>
    <path id="Path_1832" data-name="Path 1832" d="M763.2,501.315H737.221a3.949,3.949,0,0,1-3.944-3.944V471.387a3.949,3.949,0,0,1,3.944-3.944H763.2a3.949,3.949,0,0,1,3.944,3.944v25.984A3.949,3.949,0,0,1,763.2,501.315Z" transform="translate(-445.928 -310.895)" fill="#ff5cad"/>
    <path id="Path_1833" data-name="Path 1833" d="M884.578,592.985H737.029a3.016,3.016,0,0,1,0-6.032H884.58a3.016,3.016,0,0,1,0,6.032Z" transform="translate(-446.322 -374.953)" fill="#ccc"/>
    <path id="Path_1834" data-name="Path 1834" d="M884.8,561.485H737.246a3.016,3.016,0,0,1,0-6.032H884.8a3.016,3.016,0,0,1,0,6.032Z" transform="translate(-446.439 -358.069)" fill="#ccc"/>
    <path id="Path_1835" data-name="Path 1835" d="M873.051,518.475H851.243a3.016,3.016,0,0,1,0-6.032h21.808a3.016,3.016,0,1,1,0,6.032Z" transform="translate(-507.542 -335.015)" fill="#ccc"/>
    <path id="Path_1836" data-name="Path 1836" d="M945.9,486.485H851.246a3.016,3.016,0,1,1,0-6.032H945.9a3.016,3.016,0,1,1,0,6.032Z" transform="translate(-507.543 -317.868)" fill="#ccc"/>
    <path id="Path_1837" data-name="Path 1837" d="M808.12,624.985H737.029a3.016,3.016,0,0,1,0-6.032H808.12a3.016,3.016,0,1,1,0,6.032Z" transform="translate(-446.322 -392.105)" fill="#ccc"/>
  </g>
</svg>
