<svg xmlns="http://www.w3.org/2000/svg" width="20" height="20" viewBox="0 0 20 20">
  <path id="Icon_awesome-hospital-symbol" data-name="Icon awesome-hospital-symbol" d="M10,0A10,10,0,1,0,20,10,10,10,0,0,0,10,0Zm4.375,14.688a.313.313,0,0,1-.312.313H12.188a.313.313,0,0,1-.312-.312V11.25H8.125v3.437A.313.313,0,0,1,7.813,15H5.938a.313.313,0,0,1-.312-.312V5.313A.313.313,0,0,1,5.938,5H7.813a.313.313,0,0,1,.313.313V8.75h3.75V5.313A.313.313,0,0,1,12.188,5h1.875a.313.313,0,0,1,.313.313Z" fill="#727272"/>
</svg>
