<svg xmlns="http://www.w3.org/2000/svg" width="24" height="24" viewBox="0 0 24 24">
  <g id="MDI_credit-card-scan" data-name="MDI / credit-card-scan" opacity="0.6">
    <g id="Boundary" stroke="rgba(0,0,0,0)" stroke-width="1" opacity="0">
      <rect width="24" height="24" stroke="none"/>
      <rect x="0.5" y="0.5" width="23" height="23" fill="none"/>
    </g>
    <path id="Path_credit-card-scan" data-name="Path / credit-card-scan" d="M18,6H6A2,2,0,0,0,4,8v8a2,2,0,0,0,2,2H18a2,2,0,0,0,2-2V8a2,2,0,0,0-2-2m0,6H6V9H18M2,4H6V2H2A2,2,0,0,0,0,4V8H2V4M22,2H18V4h4V8h2V4a2,2,0,0,0-2-2M2,16H0v4a2,2,0,0,0,2,2H6V20H2V16m20,4H18v2h4a2,2,0,0,0,2-2V16H22v4"/>
  </g>
</svg>
