<svg xmlns="http://www.w3.org/2000/svg" width="20.996" height="26.704" viewBox="0 0 20.996 26.704">
  <g id="Group_8174" data-name="Group 8174" transform="translate(-54.72)">
    <path id="Path_2318" data-name="Path 2318" d="M75.716,10.5a10.5,10.5,0,1,0-13.66,10.013l1.614,4.629H60.211V26.7H70.225V25.139H66.767l1.614-4.629A10.519,10.519,0,0,0,75.716,10.5Zm-8.545,8.729-1.953,5.6-1.953-5.6-.4-.108a8.886,8.886,0,0,1-3.86-2.2H71.429a8.886,8.886,0,0,1-3.86,2.2ZM65.218,1.565a8.929,8.929,0,0,1,7.5,13.787H70.76a5.61,5.61,0,0,0-2.931-4.167,4.207,4.207,0,1,0-5.221,0,5.61,5.61,0,0,0-2.931,4.167H57.722a8.929,8.929,0,0,1,7.5-13.787ZM62.576,7.889a2.642,2.642,0,1,1,2.642,2.642A2.645,2.645,0,0,1,62.576,7.889Zm6.6,7.462H61.263a4.032,4.032,0,0,1,7.911,0Z" fill="#373737"/>
  </g>
</svg>
