<svg id="Group_7771" data-name="Group 7771" xmlns="http://www.w3.org/2000/svg" width="40" height="40" viewBox="0 0 40 40">
  <circle id="Ellipse_261" data-name="Ellipse 261" cx="20" cy="20" r="20" fill="#ff5cad" opacity="0.4"/>
  <g id="Group_8010" data-name="Group 8010" transform="translate(8.998 9.001)">
    <path id="Path_1957" data-name="Path 1957" d="M9.161,164.766l-1.953,1.953a2.508,2.508,0,1,1-3.547-3.547l3.921-3.921a2.506,2.506,0,0,1,3.547,0,1.075,1.075,0,0,0,1.537.016l1.229-1.229a5.441,5.441,0,0,0-8.395-.855L1.594,161.09a5.442,5.442,0,1,0,7.7,7.7l3.514-3.514a6.89,6.89,0,0,1-3.643-.507Zm0,0" transform="translate(0 -149.138)" fill="#fff"/>
    <path id="Path_1958" data-name="Path 1958" d="M189.434,1.59a5.448,5.448,0,0,0-7.7,0L178.224,5.1a6.886,6.886,0,0,1,3.643.507l1.953-1.953A2.508,2.508,0,0,1,187.367,7.2l-3.921,3.921a2.5,2.5,0,0,1-3.3.188,2.459,2.459,0,0,1-.231-.2,1.1,1.1,0,0,0-1.553,0l-1.229,1.229a5.441,5.441,0,0,0,8.395.855l3.906-3.906a5.449,5.449,0,0,0,0-7.7Zm0,0" transform="translate(-169.783 0)" fill="#fff"/>
  </g>
</svg>
