<svg xmlns="http://www.w3.org/2000/svg" xmlns:xlink="http://www.w3.org/1999/xlink" width="520" height="428" viewBox="0 0 520 428">
  <defs>
    <filter id="Rectangle_2183" x="45" y="53" width="430" height="375" filterUnits="userSpaceOnUse">
      <feOffset dy="10" input="SourceAlpha"/>
      <feGaussianBlur stdDeviation="16" result="blur"/>
      <feFlood flood-opacity="0.039"/>
      <feComposite operator="in" in2="blur"/>
      <feComposite in="SourceGraphic"/>
    </filter>
    <filter id="Union_1" x="167" y="120.219" width="185.424" height="229.091" filterUnits="userSpaceOnUse">
      <feOffset dy="4" input="SourceAlpha"/>
      <feGaussianBlur stdDeviation="13" result="blur-2"/>
      <feFlood flood-opacity="0.129"/>
      <feComposite operator="in" in2="blur-2"/>
      <feComposite in="SourceGraphic"/>
    </filter>
  </defs>
  <g id="Group_3046" data-name="Group 3046" transform="translate(-700 -204)">
    <g id="Group_3031" data-name="Group 3031" transform="translate(793.156 295)">
      <g transform="matrix(1, 0, 0, 1, -93.16, -91)" filter="url(#Rectangle_2183)">
        <rect id="Rectangle_2183-2" data-name="Rectangle 2183" width="334" height="279" rx="13" transform="translate(93 91)" fill="#fff"/>
      </g>
      <g id="Group_3030" data-name="Group 3030" transform="translate(20.392 20.392)">
        <rect id="Rectangle_2127" data-name="Rectangle 2127" width="292" height="189" rx="10" transform="translate(0.452 49.608)" fill="#fbfbfb"/>
        <rect id="Rectangle_2122" data-name="Rectangle 2122" width="292" height="39" rx="7" transform="translate(0.452 -0.392)" fill="#fbfbfb"/>
        <rect id="Rectangle_2123" data-name="Rectangle 2123" width="42" height="18" rx="5" transform="translate(12.452 10.608)" fill="#eee"/>
        <rect id="Rectangle_2124" data-name="Rectangle 2124" width="43" height="18" rx="5" transform="translate(66.452 10.608)" fill="#eee"/>
        <rect id="Rectangle_2125" data-name="Rectangle 2125" width="43" height="18" rx="5" transform="translate(120.452 10.608)" fill="#eee"/>
        <rect id="Rectangle_2128" data-name="Rectangle 2128" width="43" height="18" rx="5" transform="translate(174.452 10.608)" fill="#eee"/>
        <rect id="Rectangle_2126" data-name="Rectangle 2126" width="48" height="18" rx="5" transform="translate(234.452 10.608)" fill="#eee"/>
        <rect id="Rectangle_2129" data-name="Rectangle 2129" width="179" height="64" rx="6" transform="translate(88.452 72.608)" fill="#eee"/>
        <rect id="Rectangle_2130" data-name="Rectangle 2130" width="119" height="64" rx="6" transform="translate(21.452 148.608)" fill="#eee"/>
        <rect id="Rectangle_2131" data-name="Rectangle 2131" width="113" height="19" rx="6" transform="translate(154.452 148.608)" fill="#eee"/>
        <rect id="Rectangle_2133" data-name="Rectangle 2133" width="113" height="33" rx="6" transform="translate(154.452 179.608)" fill="#eee"/>
        <rect id="Rectangle_2132" data-name="Rectangle 2132" width="54" height="32" rx="6" transform="translate(21.452 72.608)" fill="#eee"/>
        <rect id="Rectangle_2134" data-name="Rectangle 2134" width="54" height="19" rx="6" transform="translate(21.452 115.608)" fill="#eee"/>
      </g>
    </g>
    <circle id="Ellipse_47" data-name="Ellipse 47" cx="8.5" cy="8.5" r="8.5" transform="translate(1203 364)" fill="#e5e5e5"/>
    <circle id="Ellipse_49" data-name="Ellipse 49" cx="6.5" cy="6.5" r="6.5" transform="translate(1151 513)" fill="#e8bfc9"/>
    <circle id="Ellipse_50" data-name="Ellipse 50" cx="8" cy="8" r="8" transform="translate(700 283)" fill="#e8bfc9"/>
    <circle id="Ellipse_51" data-name="Ellipse 51" cx="5" cy="5" r="5" transform="translate(748 446)" fill="#e5e5e5"/>
    <text id="_403" data-name="403" transform="translate(913 252)" fill="#e8bfc9" font-size="50" font-family="Roboto-Medium, Roboto" font-weight="500" letter-spacing="0.1em"><tspan x="0" y="0">403</tspan></text>
    <g id="Group_3041" data-name="Group 3041" transform="translate(916 369.276)">
      <g transform="matrix(1, 0, 0, 1, -216, -165.28)" filter="url(#Union_1)">
        <g id="Union_1-2" data-name="Union 1" transform="translate(216 165.28)" fill="#98a19c">
          <path d="M 78.68022918701172 136.0333251953125 L 48.71225357055664 136.0333251953125 L 43.71225357055664 136.0333251953125 L 8.744295120239258 136.0333251953125 C 5.124295234680176 136.0333251953125 1.707378625869751 134.6853485107422 -0.8770172595977783 132.2377014160156 C -2.158933877944946 131.0236206054688 -3.16862154006958 129.6027526855469 -3.878058910369873 128.0145568847656 C -4.622517108917236 126.3479537963867 -4.999996662139893 124.5776596069336 -4.999996662139893 122.7528686523438 L -4.999996662139893 56.55922698974609 C -4.999996662139893 54.73428726196289 -4.622454643249512 52.96399688720703 -3.877871513366699 51.29751586914063 C -3.16832971572876 49.70943450927734 -2.15843391418457 48.28874588012695 -0.8762672543525696 47.07493209838867 C 1.377447366714478 44.94137191772461 4.264658451080322 43.64376449584961 7.367295265197754 43.34680557250977 L 7.367295265197754 31.5421199798584 C 7.35889196395874 30.52119255065918 7.416150093078613 26.97611999511719 8.443732261657715 22.50580787658691 C 10.02325344085693 15.65868377685547 13.20502471923828 9.642058372497559 17.64594078063965 5.10260009765625 L 17.64827346801758 5.10022497177124 L 17.65060806274414 5.097850322723389 C 20.8161735534668 1.870670318603516 24.55195045471191 -0.6122649908065796 28.75367736816406 -2.28177809715271 C 33.18357849121094 -4.054210186004639 38.16271591186523 -4.968822479248047 43.55244064331055 -4.999920845031738 L 43.56685638427734 -5.000004291534424 L 43.58129501342773 -5.000004291534424 L 43.71225357055664 -5.000004291534424 L 43.8415641784668 -5.000004291534424 L 43.85729598999023 -5.000004291534424 L 43.87302398681641 -4.999899864196777 C 49.27188873291016 -4.965930938720703 54.25078201293945 -4.050239562988281 58.67123413085938 -2.278454542160034 C 62.87302017211914 -0.6086550951004028 66.60792541503906 1.874293684959412 69.77277374267578 5.101704120635986 C 74.21012878417969 9.630641937255859 77.39312744140625 15.64678764343262 78.97914886474609 22.50128746032715 C 80.01036071777344 26.96859359741211 80.0650634765625 30.51753425598145 80.0555419921875 31.54481887817383 L 80.0555419921875 43.34665679931641 C 83.15864562988281 43.64324569702148 86.04607391357422 44.94087600708008 88.30033874511719 47.0748291015625 C 89.58256530761719 48.28861999511719 90.59252166748047 49.70924758911133 91.30216979980469 51.29726791381836 C 92.04689788818359 52.96382904052734 92.42450714111328 54.73422622680664 92.42450714111328 56.55922698974609 L 92.42450714111328 122.7570343017578 C 92.42450714111328 124.5821380615234 92.04685974121094 126.3525161743164 91.30204772949219 128.0189971923828 C 90.59233856201172 129.6069488525391 89.58225250244141 131.0274810791016 88.29983520507813 132.2410736083984 C 85.71577453613281 134.6865539550781 82.29946136474609 136.0333251953125 78.68022918701172 136.0333251953125 Z M 38.71977615356445 43.28126525878906 L 43.71977615356445 43.28126525878906 L 56.34681701660156 43.28126525878906 L 56.34681701660156 31.36588478088379 C 56.3419075012207 31.07937622070313 56.1927375793457 25.07732772827148 52.78925323486328 21.64466285705566 C 50.85042953491211 19.68923950195313 47.88143157958984 18.72964477539063 43.71226119995117 18.71125984191895 C 39.5430908203125 18.72964477539063 36.57363891601563 19.68940734863281 34.6338996887207 21.64518356323242 C 32.92304611206055 23.37093353271484 32.05419158935547 25.78334999084473 31.6266918182373 27.50309944152832 C 31.1030158996582 29.60978889465332 31.07845497131348 31.28009986877441 31.07769012451172 31.35039901733398 L 31.07769012451172 31.44339179992676 L 31.07769012451172 31.47426605224609 L 31.07769012451172 43.28126525878906 L 38.71977615356445 43.28126525878906 Z" stroke="none"/>
          <path d="M 78.68022918701172 131.0333251953125 C 83.50867462158203 131.0333251953125 87.42451477050781 127.3285598754883 87.42451477050781 122.7570343017578 L 87.42451477050781 56.55924224853516 C 87.42451477050781 51.98771667480469 83.50867462158203 48.28126907348633 78.68022918701172 48.28126907348633 L 75.0555419921875 48.28126907348633 L 75.0555419921875 31.51932144165039 C 75.06304168701172 30.83108329772949 75.03970336914063 27.66521453857422 74.10785675048828 23.62842559814453 C 72.73141479492188 17.67960929870605 70.00186157226563 12.47992610931396 66.20280456542969 8.60247802734375 C 63.54499053955078 5.892083644866943 60.34909439086914 3.768162488937378 56.82117462158203 2.366688966751099 C 52.98125457763672 0.8258731365203857 48.61496353149414 0.03003101795911789 43.84156799316406 4.70291934107081e-06 L 43.71225357055664 4.70291934107081e-06 L 43.71225357055664 13.71124172210693 C 49.28567504882813 13.73208332061768 53.41756820678711 15.17695236206055 56.3398323059082 18.12424087524414 C 61.2066764831543 23.03279495239258 61.34264755249023 30.79771614074707 61.34683227539063 31.33745193481445 L 61.34683227539063 48.28126907348633 L 43.71975326538086 48.28126907348633 L 43.71975326538086 131.0333251953125 L 78.68022918701172 131.0333251953125 M 43.71225357055664 131.0333251953125 L 43.71225357055664 48.28126907348633 L 26.07770156860352 48.28126907348633 L 26.07770156860352 31.47426795959473 L 26.07770156860352 31.44339942932129 L 26.07770156860352 31.34579467773438 C 26.07770156860352 30.87529373168945 26.19364738464355 23.05697822570801 31.08383178710938 18.12424087524414 C 34.00693893432617 15.17695236206055 38.13883209228516 13.73208332061768 43.71225357055664 13.71124172210693 L 43.71225357055664 4.70291934107081e-06 L 43.58127975463867 4.70291934107081e-06 C 38.80954360961914 0.02753101848065853 34.44241333007813 0.8258731365203857 30.60167503356934 2.36418890953064 C 27.07375335693359 3.765662670135498 23.87785911560059 5.889583587646484 21.22004318237305 8.599136352539063 C 17.42267417907715 12.48076820373535 14.68893814086914 17.67711067199707 13.31664848327637 23.62592506408691 C 12.38814830780029 27.66521453857422 12.36062240600586 30.83108329772949 12.36730575561523 31.51932144165039 L 12.36730575561523 48.28126907348633 L 8.744279861450195 48.28126907348633 C 3.914990425109863 48.28126907348633 -9.587338354322128e-06 51.98771667480469 -9.587338354322128e-06 56.55924224853516 L -9.587338354322128e-06 122.7528762817383 C -9.587338354322128e-06 127.3244018554688 3.914990425109863 131.0333251953125 8.744279861450195 131.0333251953125 L 43.71225357055664 131.0333251953125 M 78.68022918701172 141.0333251953125 L 53.71225357055664 141.0333251953125 L 43.71225357055664 141.0333251953125 L 8.744279861450195 141.0333251953125 C -1.591351747512817 141.0333251953125 -10.00000953674316 132.8327484130859 -10.00000953674316 122.7528762817383 L -10.00000953674316 56.55924224853516 C -10.00000953674316 48.66326904296875 -4.838128566741943 41.92036437988281 2.367306232452393 39.37036895751953 L 2.367306232452393 31.51932144165039 C 2.356858730316162 30.49168968200684 2.411332607269287 26.42984771728516 3.570806264877319 21.38568878173828 C 5.35772705078125 13.63945198059082 8.988332748413086 6.802372932434082 14.07180595397949 1.606083631515503 C 17.73870086669922 -2.132205724716187 22.05488586425781 -5.000731945037842 26.90980529785156 -6.92936372756958 C 29.06846809387207 -7.793978214263916 31.34109115600586 -8.478618621826172 33.71225357055664 -8.979961395263672 L 33.71225357055664 -9.999995231628418 L 43.55097579956055 -9.999995231628418 L 53.58127975463867 -10.05783748626709 L 53.59507369995117 -8.998661994934082 C 56.02788543701172 -8.493124008178711 58.34368896484375 -7.79740571975708 60.54517364501953 -6.914021492004395 C 65.36891174316406 -4.99786376953125 69.68546295166016 -2.128679513931274 73.34278106689453 1.601004719734192 C 78.4248046875 6.787873268127441 82.05728149414063 13.62429428100586 83.8504638671875 21.3741626739502 C 84.98499298095703 26.28903007507324 85.07070159912109 30.18229484558105 85.05493927001953 31.62829399108887 L 85.05522155761719 39.36966705322266 C 92.26241302490234 41.91875457763672 97.42451477050781 48.66203689575195 97.42451477050781 56.55924224853516 L 97.42451477050781 122.7570343017578 C 97.42451477050781 132.8346099853516 89.01586151123047 141.0333251953125 78.68022918701172 141.0333251953125 Z M 36.0774040222168 38.28126907348633 L 43.71975326538086 38.28126907348633 L 51.34683227539063 38.28126907348633 L 51.34683227539063 31.33745193481445 C 51.32049179077148 30.05884742736816 50.76962280273438 26.70913696289063 49.2386474609375 25.16508293151855 C 48.29663848876953 24.21497917175293 46.43725204467773 23.72591400146484 43.71228408813477 23.71133422851563 C 40.98674774169922 23.72588539123535 39.12702560424805 24.21526527404785 38.18396377563477 25.16610908508301 C 36.6577262878418 26.70566177368164 36.1053581237793 30.0434513092041 36.07720184326172 31.4184513092041 L 36.0774040222168 38.28126907348633 Z" stroke="none" fill="#fff"/>
        </g>
      </g>
      <g id="Layer_2" data-name="Layer 2" transform="translate(0 0)">
        <g id="Layer_1" data-name="Layer 1">
          <path id="Path_2172" data-name="Path 2172" d="M121.06,0h0a35.346,35.346,0,0,0-12.98,2.365A27.2,27.2,0,0,0,98.7,8.6a31.461,31.461,0,0,0-7.9,15.026,35.768,35.768,0,0,0-.95,7.894V48.458h13.71V31.346c0-.471.116-8.289,5.006-13.222,2.924-2.947,7.055-4.392,12.629-4.413V0Z" transform="translate(-77.479)" fill="#afb2b0"/>
          <path id="Path_2173" data-name="Path 2173" d="M347.975,23.629A31.468,31.468,0,0,0,340.07,8.6a27.2,27.2,0,0,0-9.382-6.235A35.34,35.34,0,0,0,317.709,0h-.129V13.712c5.573.021,9.7,1.466,12.627,4.413,4.867,4.908,5,12.674,5.007,13.214v17.12h13.709V31.52A35.507,35.507,0,0,0,347.975,23.629Z" transform="translate(-273.868)" fill="#939895"/>
          <path id="Path_2174" data-name="Path 2174" d="M8.744,350.78A8.521,8.521,0,0,0,0,359.058v66.194a8.523,8.523,0,0,0,8.744,8.28H43.712V350.78Z" transform="translate(0 -302.498)" fill="#ff9696"/>
          <path id="Path_2175" data-name="Path 2175" d="M352.591,350.78H317.63v82.752h34.961a8.521,8.521,0,0,0,8.744-8.276v-66.2A8.522,8.522,0,0,0,352.591,350.78Z" transform="translate(-273.911 -302.498)" fill="#ee6969"/>
          <path id="Path_2176" data-name="Path 2176" d="M255.263,521.177a13.076,13.076,0,1,0-20.25,10.937v21.948a1.082,1.082,0,0,0,1.082,1.082h12.187a1.082,1.082,0,0,0,1.083-1.082V532.114A13.076,13.076,0,0,0,255.263,521.177Z" transform="translate(-197.575 -438.169)" fill="#eaf6f8"/>
        </g>
      </g>
      <rect id="Rectangle_2184" data-name="Rectangle 2184" width="21.584" height="20.645" transform="translate(32.845 20.473)" fill="#fff"/>
    </g>
  </g>
</svg>
