<svg xmlns="http://www.w3.org/2000/svg" width="601.541" height="396.5" viewBox="0 0 601.541 396.5">
  <g id="Group_3040" data-name="Group 3040" transform="translate(-659 -173)">
    <rect id="Rectangle_1628" data-name="Rectangle 1628" width="21.219" height="207.049" transform="translate(802.917 357.195)" fill="#fff"/>
    <path id="Path_1899" data-name="Path 1899" d="M636.88,319.949a11.666,11.666,0,0,0-11.666,11.664v15.342h23.331V331.613A11.666,11.666,0,0,0,636.88,319.949Z" transform="translate(176.646 10.241)" fill="#e3e0e0"/>
    <path id="Path_1900" data-name="Path 1900" d="M653.6,315.426a15.4,15.4,0,1,1-15.4-15.4A15.4,15.4,0,0,1,653.6,315.426Z" transform="translate(175.326 -0.636)" fill="#eeecec"/>
    <path id="Path_1901" data-name="Path 1901" d="M635.24,305.037a15.348,15.348,0,0,1,14.875,19.33,15.387,15.387,0,1,0-27.146-13.205A15.355,15.355,0,0,1,635.24,305.037Z" transform="translate(175.419 -0.82)" fill="#fff" opacity="0.5"/>
    <path id="Path_1902" data-name="Path 1902" d="M640.437,311.991a5.673,5.673,0,1,1-5.672-5.674A5.671,5.671,0,0,1,640.437,311.991Z" transform="translate(178.762 2.799)" fill="#fff"/>
    <path id="Path_1903" data-name="Path 1903" d="M649.254,349.669H625.922a2,2,0,0,1-2-2.007V332.321a13.669,13.669,0,0,1,27.338,0v15.342A2.006,2.006,0,0,1,649.254,349.669Zm-21.326-4.01h19.319V332.321a9.66,9.66,0,0,0-19.319,0Z" transform="translate(175.938 9.533)" fill="#e3e0e0"/>
    <path id="Path_1904" data-name="Path 1904" d="M638.908,333.539a17.406,17.406,0,1,1,17.406-17.406A17.425,17.425,0,0,1,638.908,333.539Zm0-30.8a13.4,13.4,0,1,0,13.4,13.4A13.409,13.409,0,0,0,638.908,302.738Z" transform="translate(174.619 -1.344)" fill="#e3e0e0"/>
    <rect id="Rectangle_1629" data-name="Rectangle 1629" width="21.219" height="14.688" transform="translate(802.917 429.267)" fill="#e3e0e0"/>
    <path id="Path_1905" data-name="Path 1905" d="M647.826,552.113H626.606a2.006,2.006,0,0,1-2.005-2.007V330.568a2,2,0,0,1,2.005-2h21.219a2,2,0,0,1,2,2V550.107A2,2,0,0,1,647.826,552.113ZM628.609,548.1H645.82V332.573H628.609Z" transform="translate(176.311 14.944)" fill="#e3e0e0"/>
    <rect id="Rectangle_1630" data-name="Rectangle 1630" width="21.22" height="207.049" transform="translate(1079.366 357.195)" fill="#fff"/>
    <path id="Path_1906" data-name="Path 1906" d="M815.706,319.949a11.665,11.665,0,0,0-11.666,11.664v15.342h23.33V331.613A11.665,11.665,0,0,0,815.706,319.949Z" transform="translate(274.272 10.241)" fill="#e3e0e0"/>
    <path id="Path_1907" data-name="Path 1907" d="M832.424,315.426a15.4,15.4,0,1,1-15.4-15.4A15.4,15.4,0,0,1,832.424,315.426Z" transform="translate(272.952 -0.636)" fill="#eeecec"/>
    <path id="Path_1908" data-name="Path 1908" d="M814.065,305.037a15.353,15.353,0,0,1,14.876,19.33,15.388,15.388,0,1,0-27.148-13.205A15.355,15.355,0,0,1,814.065,305.037Z" transform="translate(273.045 -0.82)" fill="#fff" opacity="0.5"/>
    <path id="Path_1909" data-name="Path 1909" d="M819.262,311.991a5.673,5.673,0,1,1-5.672-5.674A5.672,5.672,0,0,1,819.262,311.991Z" transform="translate(276.388 2.799)" fill="#fff"/>
    <path id="Path_1910" data-name="Path 1910" d="M828.078,349.669h-23.33a2,2,0,0,1-2.005-2.007V332.321a13.67,13.67,0,0,1,27.34,0v15.342A2,2,0,0,1,828.078,349.669Zm-21.324-4.01h19.319V332.321a9.66,9.66,0,0,0-19.319,0Z" transform="translate(273.564 9.533)" fill="#e3e0e0"/>
    <path id="Path_1911" data-name="Path 1911" d="M817.734,333.539a17.406,17.406,0,1,1,17.406-17.406A17.427,17.427,0,0,1,817.734,333.539Zm0-30.8a13.4,13.4,0,1,0,13.4,13.4A13.413,13.413,0,0,0,817.734,302.738Z" transform="translate(272.244 -1.344)" fill="#e3e0e0"/>
    <rect id="Rectangle_1631" data-name="Rectangle 1631" width="21.22" height="14.688" transform="translate(1079.366 429.267)" fill="#e3e0e0"/>
    <path id="Path_1912" data-name="Path 1912" d="M826.649,552.113H805.43a2.006,2.006,0,0,1-2.005-2.007V330.568a2,2,0,0,1,2.005-2h21.219a2,2,0,0,1,2.005,2V550.107A2.005,2.005,0,0,1,826.649,552.113ZM807.437,548.1h17.208V332.573H807.437Z" transform="translate(273.936 14.944)" fill="#e3e0e0"/>
    <rect id="Rectangle_1635" data-name="Rectangle 1635" width="21.219" height="14.688" transform="translate(802.917 492.267)" fill="#e3e0e0"/>
    <rect id="Rectangle_1636" data-name="Rectangle 1636" width="21.219" height="14.688" transform="translate(802.917 537.266)" fill="#e3e0e0"/>
    <rect id="Rectangle_1637" data-name="Rectangle 1637" width="21.219" height="14.688" transform="translate(1078.917 492.267)" fill="#e3e0e0"/>
    <rect id="Rectangle_1638" data-name="Rectangle 1638" width="21.219" height="14.688" transform="translate(1078.917 537.266)" fill="#e3e0e0"/>
    <rect id="Rectangle_1632" data-name="Rectangle 1632" width="333.78" height="29.406" transform="translate(784.861 509.077)" fill="#fff"/>
    <rect id="Rectangle_1633" data-name="Rectangle 1633" width="326.023" height="82.201" transform="translate(788.739 345.512)" fill="#fff"/>
    <g id="Group_1884" data-name="Group 1884" transform="translate(784.861 345.512)">
      <path id="Path_1913" data-name="Path 1913" d="M684.532,329.86l-70.314,70.314v11.887h24.833l82.2-82.2Z" transform="translate(-614.218 -329.86)" fill="#eeecec"/>
      <path id="Path_1914" data-name="Path 1914" d="M614.218,342.2v36.722L663.28,329.86H626.559Z" transform="translate(-614.218 -329.86)" fill="#eeecec"/>
      <path id="Path_1915" data-name="Path 1915" d="M800.08,329.86H763.361l-82.2,82.2h36.72Z" transform="translate(-577.673 -329.86)" fill="#eeecec"/>
      <path id="Path_1916" data-name="Path 1916" d="M762.582,329.86H725.86l-82.2,82.2h36.721Z" transform="translate(-598.145 -329.86)" fill="#eeecec"/>
      <path id="Path_1917" data-name="Path 1917" d="M837.4,329.86H800.676l-82.2,82.2h36.72Z" transform="translate(-557.301 -329.86)" fill="#eeecec"/>
      <path id="Path_1918" data-name="Path 1918" d="M850.338,382.733V346.012l-57.231,57.232h36.72Z" transform="translate(-516.558 -321.043)" fill="#eeecec"/>
      <path id="Path_1919" data-name="Path 1919" d="M870.81,333.578V329.86h-33l-82.2,82.2h36.72Z" transform="translate(-537.03 -329.86)" fill="#eeecec"/>
    </g>
    <rect id="Rectangle_1634" data-name="Rectangle 1634" width="333.78" height="8.522" transform="translate(784.861 345.512)" fill="#fff" opacity="0.5"/>
    <path id="Path_1920" data-name="Path 1920" d="M948.706,414.776H614.926a2.006,2.006,0,0,1-2-2.007v-82.2a2,2,0,0,1,2-2h333.78a2,2,0,0,1,2.005,2v82.2A2.007,2.007,0,0,1,948.706,414.776Zm-331.775-4.01H946.7V332.573H616.931Z" transform="translate(169.935 14.944)" fill="#e3e0e0"/>
    <g id="Group_1885" data-name="Group 1885" transform="translate(784.861 509.077)">
      <path id="Path_1921" data-name="Path 1921" d="M631.257,435.664,614.218,452.7V465.07h12.861l29.4-29.406Z" transform="translate(-614.218 -435.664)" fill="#eeecec"/>
      <path id="Path_1922" data-name="Path 1922" d="M688.482,435.664H663.256L633.85,465.07h25.226Z" transform="translate(-603.501 -435.664)" fill="#eeecec"/>
      <path id="Path_1923" data-name="Path 1923" d="M715.407,435.664H690.181l-29.4,29.406H686Z" transform="translate(-588.801 -435.664)" fill="#eeecec"/>
      <path id="Path_1924" data-name="Path 1924" d="M743.036,435.664H717.81l-29.4,29.406h25.224Z" transform="translate(-573.716 -435.664)" fill="#eeecec"/>
      <path id="Path_1925" data-name="Path 1925" d="M772.4,435.664H747.176L717.771,465.07H743Z" transform="translate(-557.686 -435.664)" fill="#eeecec"/>
      <path id="Path_1926" data-name="Path 1926" d="M800.033,435.664H774.806L745.4,465.07h25.228Z" transform="translate(-542.602 -435.664)" fill="#eeecec"/>
      <path id="Path_1927" data-name="Path 1927" d="M828.608,435.664H803.381l-29.4,29.406H799.2Z" transform="translate(-527.002 -435.664)" fill="#eeecec"/>
      <path id="Path_1928" data-name="Path 1928" d="M845.7,446.2V435.664H831.011L801.606,465.07h25.229Z" transform="translate(-511.918 -435.664)" fill="#eeecec"/>
    </g>
    <path id="Path_1929" data-name="Path 1929" d="M948.706,467.781H614.926a2,2,0,0,1-2-2V436.373a2.006,2.006,0,0,1,2-2.007h333.78a2.007,2.007,0,0,1,2.005,2.007v29.405A2.005,2.005,0,0,1,948.706,467.781Zm-331.775-4.01H946.7v-25.4H616.931Z" transform="translate(169.935 72.705)" fill="#e3e0e0"/>
    <rect id="Rectangle_1639" data-name="Rectangle 1639" width="9" height="9" rx="4.5" transform="translate(1156.07 325.63)" fill="#e8bfc9"/>
    <rect id="Rectangle_1640" data-name="Rectangle 1640" width="9" height="9" rx="4.5" transform="translate(726.07 288.63)" fill="#ffe9a7"/>
    <g id="Group_3038" data-name="Group 3038">
      <path id="Path_1930" data-name="Path 1930" d="M506.16,189.618a10.364,10.364,0,0,0-14.613-9.467,14.58,14.58,0,0,0-24.782-14.534,14.578,14.578,0,0,0-29.075.447,10.366,10.366,0,0,0-14.658,13.223c-.3-.028-.608-.047-.918-.047a10.371,10.371,0,0,0-1.637,20.613l0,.01h.076a9.4,9.4,0,0,0,3.137,0h70.529a9.4,9.4,0,0,0,3.137,0h.076v-.012A10.366,10.366,0,0,0,506.16,189.618Z" transform="translate(702.661 60.58)" fill="#f6f5f5"/>
      <path id="Path_1931" data-name="Path 1931" d="M500.439,185.627h-.078a9.608,9.608,0,0,1-3.137,0h-70.53a9.6,9.6,0,0,1-3.135,0h-.076l.006-.013a10.324,10.324,0,0,1-8.36-12.974,10.356,10.356,0,0,0,5.474,17.778l-.006.01h.076a9.4,9.4,0,0,0,3.137,0h70.53a9.388,9.388,0,0,0,3.135,0h.076l0-.012a10.385,10.385,0,0,0,8.372-7.511,10.382,10.382,0,0,1-5.487,2.709Z" transform="translate(702.719 70.016)" fill="#eeecec"/>
      <path id="Path_1932" data-name="Path 1932" d="M496.384,202.5a12.1,12.1,0,0,1-1.706-.13H424.424a11.12,11.12,0,0,1-3.525-.016,1.105,1.105,0,0,1-.119-.02h0a12.271,12.271,0,0,1,.278-24.276,12.268,12.268,0,0,1,15.7-14.128,16.487,16.487,0,0,1,31.8-1.432,16.478,16.478,0,0,1,26.416,13.144,16.68,16.68,0,0,1-.176,2.407,12.437,12.437,0,0,1,1.587-.1,12.27,12.27,0,0,1,2.166,24.348,1.934,1.934,0,0,1-.451.073A12.231,12.231,0,0,1,496.384,202.5Zm-72.1-3.929h70.529a2,2,0,0,1,.281.021,7.446,7.446,0,0,0,2.567,0l.063-.012a8.47,8.47,0,1,0-4.8-16.092,1.9,1.9,0,0,1-2.557-2.4,12.68,12.68,0,0,0-21.554-12.639,1.9,1.9,0,0,1-3.342-1.063,12.678,12.678,0,0,0-25.287.388,1.9,1.9,0,0,1-2.848,1.536,8.466,8.466,0,0,0-11.971,10.8,1.9,1.9,0,0,1-1.9,2.67c-.246-.021-.495-.038-.751-.038a8.471,8.471,0,0,0-1.337,16.837l.04.007h.012a7.452,7.452,0,0,0,2.574,0A2.021,2.021,0,0,1,424.287,198.567Z" transform="translate(702.059 59.978)" fill="#e3e0e0"/>
    </g>
    <g id="Group_3036" data-name="Group 3036">
      <path id="Path_1933" data-name="Path 1933" d="M438.411,370.051l-17.424-71.987h-9.038l-17.427,71.987H384.008v9.316h64.917v-9.316Z" transform="translate(779.324 185.233)" fill="#ffe9a7"/>
      <path id="Path_1934" data-name="Path 1934" d="M430.738,337.69H402.356l2.011-8.307h24.2Z" transform="translate(779.324 185.233)" fill="#fff"/>
      <rect id="Rectangle_1641" data-name="Rectangle 1641" width="35.26" height="8.306" transform="translate(1177.38 532.287)" fill="#fff"/>
      <path id="Path_1935" data-name="Path 1935" d="M433.315,370.051l-16.769-71.987h3.905l17.959,71.987Z" transform="translate(779.324 185.233)" fill="#fff" opacity="0.5"/>
      <rect id="Rectangle_1642" data-name="Rectangle 1642" width="64.917" height="4.57" transform="translate(1162.797 555.284)" fill="#fff" opacity="0.5"/>
      <path id="Path_1936" data-name="Path 1936" d="M448.39,380.664H383.473a1.3,1.3,0,0,1-1.3-1.3v-9.316a1.3,1.3,0,0,1,1.3-1.3h9.494l17.184-70.995a1.3,1.3,0,0,1,1.262-.991h9.039a1.3,1.3,0,0,1,1.26.991l17.183,70.995h9.5a1.3,1.3,0,0,1,1.3,1.3v9.316A1.3,1.3,0,0,1,448.39,380.664Zm-63.621-2.594h62.324v-6.722h-9.217a1.3,1.3,0,0,1-1.26-.991L419.43,299.362h-7l-17.186,70.995a1.3,1.3,0,0,1-1.26.991h-9.218Z" transform="translate(779.324 185.233)" fill="#ebd07f"/>
      <path id="Path_1937" data-name="Path 1937" d="M421.443,371.348H394.522a1.3,1.3,0,0,1,0-2.6h26.921a1.3,1.3,0,0,1,0,2.6Z" transform="translate(779.324 185.233)" fill="#ebd07f"/>
      <path id="Path_1938" data-name="Path 1938" d="M444.356,371.348H429.008a1.3,1.3,0,0,1,0-2.6h15.348a1.3,1.3,0,0,1,0,2.6Z" transform="translate(779.324 185.233)" fill="#ebd07f"/>
    </g>
    <path id="Path_1939" data-name="Path 1939" d="M-70,0H511" transform="translate(731 567.5)" fill="none" stroke="#dde1e6" stroke-linecap="round" stroke-width="4"/>
    <path id="Path_1940" data-name="Path 1940" d="M-63.459,0H-70" transform="translate(1322 567.5)" fill="none" stroke="#dde1e6" stroke-linecap="round" stroke-width="4"/>
    <text id="_404" data-name="404" transform="translate(905.5 319)" fill="#e8bfc9" font-size="50" font-family="Roboto-Medium, Roboto" font-weight="500" letter-spacing="0.1em"><tspan x="0" y="0">404</tspan></text>
    <rect id="Rectangle_1643" data-name="Rectangle 1643" width="9" height="9" rx="4.5" transform="translate(757.07 452.63)" fill="#fed0d0"/>
    <g id="Group_3037" data-name="Group 3037" transform="translate(-482)">
      <path id="Path_1933-2" data-name="Path 1933" d="M438.411,370.051l-17.424-71.987h-9.038l-17.427,71.987H384.008v9.316h64.917v-9.316Z" transform="translate(779.324 185.233)" fill="#ffe9a7"/>
      <path id="Path_1934-2" data-name="Path 1934" d="M430.738,337.69H402.356l2.011-8.307h24.2Z" transform="translate(779.324 185.233)" fill="#fff"/>
      <rect id="Rectangle_1641-2" data-name="Rectangle 1641" width="35.26" height="8.306" transform="translate(1177.38 532.287)" fill="#fff"/>
      <path id="Path_1935-2" data-name="Path 1935" d="M433.315,370.051l-16.769-71.987h3.905l17.959,71.987Z" transform="translate(779.324 185.233)" fill="#fff" opacity="0.5"/>
      <rect id="Rectangle_1642-2" data-name="Rectangle 1642" width="64.917" height="4.57" transform="translate(1162.797 555.284)" fill="#fff" opacity="0.5"/>
      <path id="Path_1936-2" data-name="Path 1936" d="M448.39,380.664H383.473a1.3,1.3,0,0,1-1.3-1.3v-9.316a1.3,1.3,0,0,1,1.3-1.3h9.494l17.184-70.995a1.3,1.3,0,0,1,1.262-.991h9.039a1.3,1.3,0,0,1,1.26.991l17.183,70.995h9.5a1.3,1.3,0,0,1,1.3,1.3v9.316A1.3,1.3,0,0,1,448.39,380.664Zm-63.621-2.594h62.324v-6.722h-9.217a1.3,1.3,0,0,1-1.26-.991L419.43,299.362h-7l-17.186,70.995a1.3,1.3,0,0,1-1.26.991h-9.218Z" transform="translate(779.324 185.233)" fill="#ebd07f"/>
      <path id="Path_1937-2" data-name="Path 1937" d="M421.443,371.348H394.522a1.3,1.3,0,0,1,0-2.6h26.921a1.3,1.3,0,0,1,0,2.6Z" transform="translate(779.324 185.233)" fill="#ebd07f"/>
      <path id="Path_1938-2" data-name="Path 1938" d="M444.356,371.348H429.008a1.3,1.3,0,0,1,0-2.6h15.348a1.3,1.3,0,0,1,0,2.6Z" transform="translate(779.324 185.233)" fill="#ebd07f"/>
    </g>
    <g id="Group_3039" data-name="Group 3039" transform="translate(-422 -38)">
      <path id="Path_1930-2" data-name="Path 1930" d="M506.16,189.618a10.364,10.364,0,0,0-14.613-9.467,14.58,14.58,0,0,0-24.782-14.534,14.578,14.578,0,0,0-29.075.447,10.366,10.366,0,0,0-14.658,13.223c-.3-.028-.608-.047-.918-.047a10.371,10.371,0,0,0-1.637,20.613l0,.01h.076a9.4,9.4,0,0,0,3.137,0h70.529a9.4,9.4,0,0,0,3.137,0h.076v-.012A10.366,10.366,0,0,0,506.16,189.618Z" transform="translate(702.661 60.58)" fill="#f6f5f5"/>
      <path id="Path_1931-2" data-name="Path 1931" d="M500.439,185.627h-.078a9.608,9.608,0,0,1-3.137,0h-70.53a9.6,9.6,0,0,1-3.135,0h-.076l.006-.013a10.324,10.324,0,0,1-8.36-12.974,10.356,10.356,0,0,0,5.474,17.778l-.006.01h.076a9.4,9.4,0,0,0,3.137,0h70.53a9.388,9.388,0,0,0,3.135,0h.076l0-.012a10.385,10.385,0,0,0,8.372-7.511,10.382,10.382,0,0,1-5.487,2.709Z" transform="translate(702.719 70.016)" fill="#eeecec"/>
      <path id="Path_1932-2" data-name="Path 1932" d="M496.384,202.5a12.1,12.1,0,0,1-1.706-.13H424.424a11.12,11.12,0,0,1-3.525-.016,1.105,1.105,0,0,1-.119-.02h0a12.271,12.271,0,0,1,.278-24.276,12.268,12.268,0,0,1,15.7-14.128,16.487,16.487,0,0,1,31.8-1.432,16.478,16.478,0,0,1,26.416,13.144,16.68,16.68,0,0,1-.176,2.407,12.437,12.437,0,0,1,1.587-.1,12.27,12.27,0,0,1,2.166,24.348,1.934,1.934,0,0,1-.451.073A12.231,12.231,0,0,1,496.384,202.5Zm-72.1-3.929h70.529a2,2,0,0,1,.281.021,7.446,7.446,0,0,0,2.567,0l.063-.012a8.47,8.47,0,1,0-4.8-16.092,1.9,1.9,0,0,1-2.557-2.4,12.68,12.68,0,0,0-21.554-12.639,1.9,1.9,0,0,1-3.342-1.063,12.678,12.678,0,0,0-25.287.388,1.9,1.9,0,0,1-2.848,1.536,8.466,8.466,0,0,0-11.971,10.8,1.9,1.9,0,0,1-1.9,2.67c-.246-.021-.495-.038-.751-.038a8.471,8.471,0,0,0-1.337,16.837l.04.007h.012a7.452,7.452,0,0,0,2.574,0A2.021,2.021,0,0,1,424.287,198.567Z" transform="translate(702.059 59.978)" fill="#e3e0e0"/>
    </g>
  </g>
</svg>
