<svg xmlns="http://www.w3.org/2000/svg" width="26.362" height="18.453" viewBox="0 0 26.362 18.453"><defs><style>.a{fill:#ff5cad;}</style></defs><path class="a" d="M25.586,3.175a12.2,12.2,0,0,0-4.795-.925c-5.073,0-10.146,2.568-15.22,2.568a12.5,12.5,0,0,1-3.816-.565,1.408,1.408,0,0,0-.426-.067A1.311,1.311,0,0,0,0,5.5V18.564a1.31,1.31,0,0,0,.776,1.213,12.191,12.191,0,0,0,4.795.926c5.073,0,10.147-2.568,15.22-2.568a12.5,12.5,0,0,1,3.816.565,1.408,1.408,0,0,0,.426.067,1.311,1.311,0,0,0,1.328-1.31V4.389A1.312,1.312,0,0,0,25.586,3.175Zm-12.4,12.256c-1.82,0-3.3-1.771-3.3-3.954s1.475-3.954,3.3-3.954,3.3,1.77,3.3,3.954S15,15.431,13.181,15.431Z" transform="translate(0 -2.25)"/></svg>