<svg xmlns="http://www.w3.org/2000/svg" width="384.765" height="322" viewBox="0 0 384.765 322">
  <g id="Group_2616" data-name="Group 2616" transform="translate(-1225 -477)">
    <g id="Group_2615" data-name="Group 2615" transform="translate(1224.989 477)" opacity="0.6">
      <path id="Path_969" data-name="Path 969" d="M365.123,240.656q-.665,3.5-1.6,6.923c-.067.265-.142.526-.218.792h-8.626a2.774,2.774,0,0,0-2.771,2.771v24.59c-.261.487-.527.97-.792,1.453-1.37,2.494-2.795,4.96-4.252,7.395a281.111,281.111,0,0,1-96.465,96.41l2.344-5.289-2.581-.178c-18.7-1.279-37.471-2.7-55.736-6.9-19.108-4.4-37.8-12.026-52.775-24.673s-25.96-30.718-27.484-50.265a57.352,57.352,0,0,1,2.007-19.955c3.511-12.477,11.183-23.7,22.251-30.346,17.386-10.431,40.064-8.3,58.392.372s33.24,23.031,47.8,37.139a184.634,184.634,0,0,0-59.738-62.355c-8.139-5.209-16.776-9.849-23.7-16.6s-12.018-16.2-10.795-25.786c1.389-10.87,10.292-19.12,19.211-25.481,3.563-2.541,7.24-4.952,11.032-7.169,10.7-6.27,22.275-11,34.5-12.754,16.559-2.379,34.443,1.231,47.138,12.125,14.3,12.275,20.169,32.072,19.611,51.009,8.812-12.81,22.4-22.615,37.748-23.031,15.933-.428,31.078,9.639,39.059,23.438S368.1,225,365.123,240.656Z" transform="translate(-113.998 -130.052)" fill="#e6e6e6"/>
      <path id="Path_970" data-name="Path 970" d="M492.712,364.851c9.332-.822,17.953-1.782,27-4.341,8.766-2.48,17.2-6.633,23.44-13.412,6.712-7.292,10.335-16.763,12.891-26.19,1.425-5.256,2.6-10.586,3.7-15.917q1.8-8.677,3.2-17.431,2.782-17.424,3.972-35.054.144-2.14.264-4.281c.049-.881-1.32-.878-1.37,0q-.978,17.378-3.517,34.62c-1.671,11.294-3.808,22.538-6.521,33.63-2.3,9.4-5.273,18.939-11.165,26.761-5.526,7.335-13.507,12.128-22.125,14.994-8.769,2.916-18.015,4.08-27.179,4.946-1.124.106-1.457.207-2.582.306-.871.077-.879,1.447,0,1.37Z" transform="translate(-342.394 -201.047)" fill="#fff"/>
      <path id="Path_971" data-name="Path 971" d="M120.483,493.468a148.448,148.448,0,0,1,34.717,6.118,150.033,150.033,0,0,1,32.332,14.073,146.371,146.371,0,0,1,27.227,20.5,149.975,149.975,0,0,1,21.268,25.359,148.487,148.487,0,0,1,15.219,29.5q.723,1.9,1.393,3.828c.289.827,1.612.471,1.321-.364a149.888,149.888,0,0,0-14.539-30.238,151.839,151.839,0,0,0-20.862-26.281,148.039,148.039,0,0,0-26.633-21.254A151.182,151.182,0,0,0,124.8,492.4q-2.156-.181-4.316-.3c-.881-.048-.878,1.322,0,1.37Z" transform="translate(-117.511 -348.781)" fill="#fff"/>
      <path id="Path_972" data-name="Path 972" d="M282.539,166.025a80.674,80.674,0,0,1,21.178,10.349A99.456,99.456,0,0,1,321.8,192.43a133.1,133.1,0,0,1,14.971,20.632,176.017,176.017,0,0,1,11.9,24.2,218.975,218.975,0,0,1,8.668,26.322,247.479,247.479,0,0,1,7.929,55.16,219.1,219.1,0,0,1-.784,26.532A168.991,168.991,0,0,1,360.5,369.7a115.41,115.41,0,0,1-7.187,21.121q-1.067,2.312-2.265,4.56c-.414.778.768,1.47,1.183.691a105.57,105.57,0,0,0,8.089-20.358,157.657,157.657,0,0,0,4.824-23.949,208.362,208.362,0,0,0,1.594-26.478,242.95,242.95,0,0,0-1.658-27.824,250.617,250.617,0,0,0-4.826-27.8,226.868,226.868,0,0,0-8.068-27.076,188.4,188.4,0,0,0-11.219-24.917,144.443,144.443,0,0,0-14.386-21.713,107.112,107.112,0,0,0-17.574-17.416,84.984,84.984,0,0,0-20.61-11.888q-2.71-1.079-5.5-1.951c-.843-.265-1.2,1.057-.364,1.321Z" transform="translate(-215.526 -150.966)" fill="#fff"/>
      <ellipse id="Ellipse_158" data-name="Ellipse 158" cx="97.973" cy="3.959" rx="97.973" ry="3.959" transform="translate(50.282 245.387)" fill="#e6e6e6"/>
      <path id="Path_973" data-name="Path 973" d="M668.041,441.845a4.169,4.169,0,0,0-.095.649l-17,9.81-4.133-2.379-4.406,5.768,8.842,6.3,19.4-15.3a4.155,4.155,0,1,0-2.6-4.846Z" transform="translate(-433.225 -316.484)" fill="#ffb8b8"/>
      <path id="Path_974" data-name="Path 974" d="M605.96,447.337l13.389,9.543,5.988-7.508-13.016-10.444a5.274,5.274,0,0,0-7.6,1.053h0a5.274,5.274,0,0,0,1.234,7.356Z" transform="translate(-409.871 -315.957)" fill="#f39"/>
      <path id="Path_975" data-name="Path 975" d="M425.519,579.321l4.695,1.23,6.979-17.522-6.929-1.816Z" transform="translate(-257.07 -339.056)" fill="#ffb8b8"/>
      <path id="Path_976" data-name="Path 976" d="M0,0H15.252V5.893H5.893A5.893,5.893,0,0,1,0,0H0Z" transform="matrix(-0.967, -0.253, 0.253, -0.967, 181.056, 248.228)" fill="#2f2e41"/>
      <path id="Path_977" data-name="Path 977" d="M525.919,585.355l4.778-.853-1.018-18.833-7.051,1.26Z" transform="translate(-315.737 -341.747)" fill="#ffb8b8"/>
      <path id="Path_978" data-name="Path 978" d="M0,0H15.252V5.893H5.893A5.893,5.893,0,0,1,0,0H0Z" transform="translate(224.963 245.545) rotate(169.872)" fill="#2f2e41"/>
      <path id="Path_979" data-name="Path 979" d="M608.452,393.741a4.559,4.559,0,0,1,2.71,2.876,20.063,20.063,0,0,1,1.071,4.518c.452,2.873.886,5.982-.049,8.643-1.1,3.118-4.015,4.751-6.547,3.984s-4.546-3.648-5.234-6.965a16.867,16.867,0,0,1,1.158-9.93,8.074,8.074,0,0,1,3.028-3.887,2.989,2.989,0,0,1,3.986.83" transform="translate(-407.678 -288.639)" fill="#2f2e41"/>
      <path id="Path_980" data-name="Path 980" d="M577.285,526.948l9.1,81.464-7.512,2.852-13.855-54.628-19.289,49.948-8.223.457s11.282-77.718,19.643-79.485Z" transform="translate(-369.85 -369.836)" fill="#2f2e41"/>
      <circle id="Ellipse_159" data-name="Ellipse 159" cx="9.723" cy="9.723" r="9.723" transform="translate(190.073 96.054)" fill="#ffb8b8"/>
      <path id="Path_981" data-name="Path 981" d="M601.705,430.036l-10.507-1.37s-6.852,8.223-6.4,22.384-1.142,18.5-1.142,18.5l21.907.4C602.4,465.592,615.647,440.583,601.705,430.036Z" transform="translate(-397.737 -310.459)" fill="#ff5cad"/>
      <path id="Path_982" data-name="Path 982" d="M607.7,504.693a4.159,4.159,0,0,0-.654.056L593.6,490.441l1.37-4.568-6.624-2.969-4.112,10.05,19.338,15.383a4.155,4.155,0,1,0,4.121-3.643Z" transform="translate(-398.086 -343.227)" fill="#ffb8b8"/>
      <path id="Path_983" data-name="Path 983" d="M596.811,441.187,590.585,456.4l8.679,4.111,7.188-15.06a5.274,5.274,0,0,0-2.763-7.154h0a5.274,5.274,0,0,0-6.879,2.885Z" transform="translate(-401.92 -316.043)" fill="#f39"/>
      <path id="Path_984" data-name="Path 984" d="M588.549,387.819c1.523-.879,1.686-3,1.479-4.745s-.553-3.693.474-5.122c1.225-1.7,3.687-1.738,5.785-1.794s4.654-.67,5.2-2.7a3.613,3.613,0,0,0-1.512-3.618,10.612,10.612,0,0,0-3.824-1.566c-3-.79-6.1-1.587-9.17-1.153a11.692,11.692,0,0,0-9.961,13.055c.5,3.9,1.218,5.6.745,7.322-.882,3.2-4.683,5.26-4.759,8.581-.059,2.6,2.235,4.6,4.474,5.92a15.017,15.017,0,0,0,5.738,2.179,7.316,7.316,0,0,0,5.774-1.611c1.966-1.789,2.452-4.777,1.889-7.375a22.568,22.568,0,0,0-3.44-7.145" transform="translate(-391.298 -273.204)" fill="#2f2e41"/>
      <path id="Path_985" data-name="Path 985" d="M857.09,426.948H716.563A3.568,3.568,0,0,0,713,430.511v90.254a3.568,3.568,0,0,0,3.563,3.563H857.09a3.568,3.568,0,0,0,3.563-3.563V430.511A3.568,3.568,0,0,0,857.09,426.948Zm2.771,93.817a2.774,2.774,0,0,1-2.771,2.771H716.563a2.774,2.774,0,0,1-2.771-2.771V430.511a2.774,2.774,0,0,1,2.771-2.771H857.09a2.774,2.774,0,0,1,2.771,2.771Z" transform="translate(-475.877 -309.421)" fill="#3f3d56"/>
      <path id="Path_986" data-name="Path 986" d="M758.809,496.34H736.642a3.369,3.369,0,0,1-3.365-3.365V470.808a3.369,3.369,0,0,1,3.365-3.365h22.168a3.369,3.369,0,0,1,3.365,3.365v22.168A3.369,3.369,0,0,1,758.809,496.34Z" transform="translate(-488.127 -333.886)" fill="#ff5cad"/>
      <path id="Path_987" data-name="Path 987" d="M862.466,592.1H736.586a2.573,2.573,0,1,1,0-5.146H862.467a2.573,2.573,0,0,1,0,5.146Z" transform="translate(-488.572 -406.088)" fill="#ccc"/>
      <path id="Path_988" data-name="Path 988" d="M862.684,560.6H736.8a2.573,2.573,0,0,1,0-5.146H862.684a2.573,2.573,0,0,1,0,5.146Z" transform="translate(-488.703 -387.057)" fill="#ccc"/>
      <path id="Path_989" data-name="Path 989" d="M869.405,517.589H850.8a2.573,2.573,0,1,1,0-5.146h18.605a2.573,2.573,0,1,1,0,5.146Z" transform="translate(-557.574 -361.073)" fill="#ccc"/>
      <path id="Path_990" data-name="Path 990" d="M931.557,485.6H850.8a2.573,2.573,0,0,1,0-5.146h80.754a2.573,2.573,0,1,1,0,5.146Z" transform="translate(-557.576 -341.746)" fill="#ccc"/>
      <path id="Path_991" data-name="Path 991" d="M797.236,624.1h-60.65a2.573,2.573,0,1,1,0-5.146h60.65a2.573,2.573,0,1,1,0,5.146Z" transform="translate(-488.572 -425.421)" fill="#ccc"/>
    </g>
    <!-- <text id="Search_Patient_or_Add_New_Patient" data-name="Search Patient or Add New Patient" transform="translate(1248.883 790)" fill="#373737" font-size="24" font-family="Yantramanav-Regular, Yantramanav"><tspan x="0" y="0">Search Patient or Add New Patient</tspan></text> -->
  </g>
</svg>
