<svg xmlns="http://www.w3.org/2000/svg" width="25.801" height="28.601" viewBox="0 0 25.801 28.601"><g transform="translate(-1147 -2026)"><g transform="translate(1147 2026)"><path d="M20.5,7.511A7.511,7.511,0,1,0,8.742,13.7,13.013,13.013,0,0,0,0,25.986H2.03A10.975,10.975,0,0,1,12.992,15.023,7.52,7.52,0,0,0,20.5,7.511Zm-7.511,5.481a5.481,5.481,0,1,1,5.481-5.481A5.488,5.488,0,0,1,12.992,12.993Z" transform="translate(0)"/></g><path d="M16.52,11.051A1.686,1.686,0,0,1,17.6,9.478a6.682,6.682,0,0,0-.809-1.948,1.708,1.708,0,0,1-.686.147,1.682,1.682,0,0,1-1.539-2.368A6.662,6.662,0,0,0,12.623,4.5a1.684,1.684,0,0,1-3.146,0,6.682,6.682,0,0,0-1.948.809A1.682,1.682,0,0,1,5.991,7.676a1.653,1.653,0,0,1-.686-.147A6.83,6.83,0,0,0,4.5,9.481a1.685,1.685,0,0,1,0,3.146,6.682,6.682,0,0,0,.809,1.948A1.683,1.683,0,0,1,7.533,16.8a6.721,6.721,0,0,0,1.948.809,1.681,1.681,0,0,1,3.139,0,6.682,6.682,0,0,0,1.948-.809,1.684,1.684,0,0,1,2.221-2.221,6.721,6.721,0,0,0,.809-1.948A1.694,1.694,0,0,1,16.52,11.051Zm-5.438,2.726a2.729,2.729,0,1,1,2.729-2.729A2.729,2.729,0,0,1,11.081,13.777Z" transform="translate(1155.2 2036.997)"/></g></svg>