<svg xmlns="http://www.w3.org/2000/svg" width="26" height="26" viewBox="0 0 26 26"><defs><style>.a,.c{fill:none;}.a{stroke:#f39;stroke-width:2px;}.b{stroke:none;}</style></defs><g class="a"><path class="b" d="M3,0H23a3,3,0,0,1,3,3v9a0,0,0,0,1,0,0H0a0,0,0,0,1,0,0V3A3,3,0,0,1,3,0Z"/><path class="c" d="M3,1H23a2,2,0,0,1,2,2v7a1,1,0,0,1-1,1H2a1,1,0,0,1-1-1V3A2,2,0,0,1,3,1Z"/></g><g class="a" transform="translate(0 14)"><path class="b" d="M0,0H12a0,0,0,0,1,0,0V12a0,0,0,0,1,0,0H3A3,3,0,0,1,0,9V0A0,0,0,0,1,0,0Z"/><path class="c" d="M2,1h8a1,1,0,0,1,1,1v8a1,1,0,0,1-1,1H3A2,2,0,0,1,1,9V2A1,1,0,0,1,2,1Z"/></g><g class="a" transform="translate(14 14)"><path class="b" d="M0,0H12a0,0,0,0,1,0,0V9a3,3,0,0,1-3,3H0a0,0,0,0,1,0,0V0A0,0,0,0,1,0,0Z"/><path class="c" d="M2,1h8a1,1,0,0,1,1,1V9a2,2,0,0,1-2,2H2a1,1,0,0,1-1-1V2A1,1,0,0,1,2,1Z"/></g></svg>