<svg xmlns="http://www.w3.org/2000/svg" width="27" height="26.973" viewBox="0 0 27 26.973">
  <g id="Group_119" data-name="Group 119" transform="translate(0.5 0.5)">
    <path id="Path_29" data-name="Path 29" d="M9,10a5,5,0,1,1,5-5A5.006,5.006,0,0,1,9,10ZM9,1a4,4,0,1,0,4,4A4,4,0,0,0,9,1Z" fill="none" stroke="#f39" stroke-width="1"/>
    <path id="Path_30" data-name="Path 30" d="M6.5,21H.5a.5.5,0,0,1-.5-.5v-4A4.505,4.505,0,0,1,4.5,12h9a4.481,4.481,0,0,1,3.243,1.386.5.5,0,1,1-.726.688A3.478,3.478,0,0,0,13.5,13h-9A3.5,3.5,0,0,0,1,16.5V20H6.5a.5.5,0,0,1,0,1Z" transform="translate(0 1.972)" fill="none" stroke="#f39" stroke-width="1"/>
    <path id="Path_31" data-name="Path 31" d="M14.5,24a.5.5,0,0,1-.447-.276L12.191,20H9.5a.5.5,0,0,1,0-1h3a.5.5,0,0,1,.447.276l1.518,3.036L17.04,16.3a.5.5,0,0,1,.445-.3.525.525,0,0,1,.462.276L20.809,22H23.5a.5.5,0,0,1,0,1h-3a.5.5,0,0,1-.447-.276l-2.518-5.036L14.96,23.7a.5.5,0,0,1-.445.3H14.5Z" transform="translate(2 1.972)" fill="none" stroke="#f39" stroke-width="1"/>
  </g>
</svg>
