<svg xmlns="http://www.w3.org/2000/svg" width="26" height="22.695" viewBox="0 0 26 22.695"><defs><style>.a{fill:#f39;}</style></defs><path class="a" d="M25.156,33.308a2.89,2.89,0,0,0-4.082,0L7.8,46.582l.389.389L0,55.159l5.363-.217A3.9,3.9,0,0,0,7.969,53.8l3.524-3.524.389.389L25.156,37.39A2.89,2.89,0,0,0,25.156,33.308ZM11.225,45.316l1.923,1.923-1.266,1.266L9.959,46.582Zm-4.336,7.4a2.375,2.375,0,0,1-1.588.7l-1.458.059,5.424-5.424L10.413,49.2Zm17.187-16.41-9.849,9.849L12.3,44.237l9.849-9.849a1.36,1.36,0,0,1,1.923,1.923Z" transform="translate(0 -32.464)"/></svg>