<svg xmlns="http://www.w3.org/2000/svg" width="25.986" height="25.986" viewBox="0 0 25.986 25.986"><defs><style>.a{fill:#f39;}</style></defs><path class="a" d="M23.008,66.488H2.978A2.98,2.98,0,0,1,0,63.511V45.645a2.98,2.98,0,0,1,2.978-2.977H23.008a2.98,2.98,0,0,1,2.978,2.977V63.511A2.98,2.98,0,0,1,23.008,66.488ZM2.978,44.292a1.355,1.355,0,0,0-1.354,1.353V63.511a1.355,1.355,0,0,0,1.354,1.354H23.008a1.355,1.355,0,0,0,1.354-1.354V45.645a1.355,1.355,0,0,0-1.354-1.353Zm0,0" transform="translate(0 -40.502)"/><path class="a" d="M25.174,172.292H.812a.812.812,0,0,1,0-1.624H25.174a.812.812,0,0,1,0,1.624Zm0,0" transform="translate(0 -162.006)"/><path class="a" d="M107.48,6.5a.812.812,0,0,1-.812-.812V.812a.812.812,0,1,1,1.624,0V5.684A.812.812,0,0,1,107.48,6.5Zm0,0" transform="translate(-101.254)"/><path class="a" d="M374.144,6.5a.812.812,0,0,1-.812-.812V.812a.812.812,0,1,1,1.624,0V5.684A.812.812,0,0,1,374.144,6.5Zm0,0" transform="translate(-354.384)"/></svg>