<svg xmlns="http://www.w3.org/2000/svg" width="23.95" height="27.941" viewBox="0 0 23.95 27.941">
  <path id="Icon_material-live-help" data-name="Icon material-live-help" d="M25.789,3H7.161A2.66,2.66,0,0,0,4.5,5.661V24.289A2.66,2.66,0,0,0,7.161,26.95h5.322l3.992,3.992,3.992-3.992h5.322a2.669,2.669,0,0,0,2.661-2.661V5.661A2.669,2.669,0,0,0,25.789,3ZM17.805,24.289H15.144V21.628h2.661ZM20.56,13.977l-1.2,1.224a4.53,4.53,0,0,0-1.557,3.765H15.144V18.3A5.356,5.356,0,0,1,16.7,14.536l1.65-1.676a2.6,2.6,0,0,0,.785-1.876,2.661,2.661,0,1,0-5.322,0H11.153a5.322,5.322,0,1,1,10.644,0,4.234,4.234,0,0,1-1.237,2.994Z" transform="translate(-4.5 -3)" fill="#f39"/>
</svg>
