<svg xmlns="http://www.w3.org/2000/svg" width="31" height="33" viewBox="0 0 31 33">
  <g id="Group_7332" data-name="Group 7332" transform="translate(5272 12980)">
    <g id="Group_7262" data-name="Group 7262" transform="translate(-5272 -12980)">
      <path id="Path_32" data-name="Path 32" d="M23.008,66.488H2.978A2.98,2.98,0,0,1,0,63.511V45.645a2.98,2.98,0,0,1,2.978-2.977H23.008a2.98,2.98,0,0,1,2.978,2.977V63.511A2.98,2.98,0,0,1,23.008,66.488ZM2.978,44.292a1.355,1.355,0,0,0-1.354,1.353V63.511a1.355,1.355,0,0,0,1.354,1.354H23.008a1.355,1.355,0,0,0,1.354-1.354V45.645a1.355,1.355,0,0,0-1.354-1.353Zm0,0" transform="translate(0 -40.502)"/>
      <path id="Path_33" data-name="Path 33" d="M25.174,172.292H.812a.812.812,0,0,1,0-1.624H25.174a.812.812,0,0,1,0,1.624Zm0,0" transform="translate(0 -162.006)"/>
      <path id="Path_34" data-name="Path 34" d="M107.48,6.5a.812.812,0,0,1-.812-.812V.812a.812.812,0,1,1,1.624,0V5.684A.812.812,0,0,1,107.48,6.5Zm0,0" transform="translate(-101.254)"/>
      <path id="Path_35" data-name="Path 35" d="M374.144,6.5a.812.812,0,0,1-.812-.812V.812a.812.812,0,1,1,1.624,0V5.684A.812.812,0,0,1,374.144,6.5Zm0,0" transform="translate(-354.384)"/>
    </g>
    <g id="Group_7264" data-name="Group 7264" transform="translate(-1 -1)">
      <g id="Ellipse_383" data-name="Ellipse 383" transform="translate(-5260 -12966)" fill="#fff" stroke="#000" stroke-width="1.5">
        <circle cx="10" cy="10" r="10" stroke="none"/>
        <circle cx="10" cy="10" r="9.25" fill="none"/>
      </g>
      <g id="Group_7263" data-name="Group 7263" transform="translate(-3.94 -0.94)">
        <path id="Path_1867" data-name="Path 1867" d="M374.144,9.88c-.448,0-.812-.553-.812-1.235V1.235c0-.682.364-1.235.812-1.235s.812.553.812,1.235v7.41C374.956,9.327,374.592,9.88,374.144,9.88Zm0,0" transform="translate(-5620.332 -12960)"/>
        <path id="Path_1868" data-name="Path 1868" d="M374.144,9.88c-.448,0-.812-.553-.812-1.235V1.235c0-.682.364-1.235.812-1.235s.812.553.812,1.235v7.41C374.956,9.327,374.592,9.88,374.144,9.88Zm0,0" transform="translate(-5241.12 -13329.332) rotate(90)"/>
      </g>
    </g>
  </g>
</svg>
