<svg xmlns="http://www.w3.org/2000/svg" width="402.04" height="248.803" viewBox="0 0 402.04 248.803">
  <g id="Group_1422" data-name="Group 1422" transform="translate(-827 -539.197)">
    <g id="Group_1871" data-name="Group 1871" transform="translate(827 539.197)">
      <ellipse id="Ellipse_63" data-name="Ellipse 63" cx="73.556" cy="5.807" rx="73.556" ry="5.807" transform="translate(143.511 237.189)" fill="#ebeff1"/>
      <g id="Group_1841" data-name="Group 1841">
        <g id="Group_1869" data-name="Group 1869">
          <g id="Group_1844" data-name="Group 1844" transform="translate(36.836 15.502)">
            <g id="Group_1841-2" data-name="Group 1841" transform="translate(0 0)">
              <path id="Path_1861" data-name="Path 1861" d="M157.9,170.072H87.631a2.715,2.715,0,0,1-2.716-2.716h0a2.716,2.716,0,0,1,2.716-2.716H157.9a2.715,2.715,0,0,1,2.716,2.716h0A2.715,2.715,0,0,1,157.9,170.072Z" transform="translate(-84.915 -116.433)" fill="#f5e4d1"/>
              <path id="Path_1862" data-name="Path 1862" d="M384.1,51.766H338.32a2.78,2.78,0,0,1-2.78-2.78h0a2.78,2.78,0,0,1,2.78-2.78H384.1a2.78,2.78,0,0,1,2.78,2.78h0A2.78,2.78,0,0,1,384.1,51.766Z" transform="translate(-93.323 -46.206)" fill="#ebeff1"/>
              <path id="Rectangle_1614" data-name="Rectangle 1614" d="M6.259,0H9.508a6.259,6.259,0,0,1,6.259,6.259V9.012a6.259,6.259,0,0,1-6.259,6.259H6.258A6.258,6.258,0,0,1,0,9.012V6.259A6.259,6.259,0,0,1,6.259,0Z" transform="translate(22.086 74.207)" fill="#f5e4d1"/>
              <rect id="Rectangle_1615" data-name="Rectangle 1615" width="8.602" height="8.332" rx="3.415" transform="translate(351.537 188.705)" fill="#f5e4d1"/>
              <path id="Rectangle_1616" data-name="Rectangle 1616" d="M3.414,0H5.187A3.415,3.415,0,0,1,8.6,3.415v1.5A3.415,3.415,0,0,1,5.187,8.332H3.415A3.415,3.415,0,0,1,0,4.917v-1.5A3.414,3.414,0,0,1,3.414,0Z" transform="translate(331.735 48.93)" fill="#f5e4d1"/>
            </g>
            <g id="Group_1843" data-name="Group 1843" transform="translate(70.425 15.341)">
              <rect id="Rectangle_1617" data-name="Rectangle 1617" width="218.209" height="183.214" rx="7.151" fill="#ebeff1"/>
              <path id="Path_1894" data-name="Path 1894" d="M0,0H218.209" transform="translate(0 22.046)" fill="none" stroke="#f7f9fa" stroke-width="1.941"/>
              <path id="Path_1893" data-name="Path 1893" d="M7.016,0H211.193a7.016,7.016,0,0,1,7.016,7.016V176.2a7.016,7.016,0,0,1-7.016,7.016H7.016A7.016,7.016,0,0,1,0,176.2V7.016A7.016,7.016,0,0,1,7.016,0Z" fill="none"/>
              <g id="Group_1842" data-name="Group 1842" transform="translate(15.371 8.172)">
                <circle id="Ellipse_55" data-name="Ellipse 55" cx="3.076" cy="3.076" r="3.076" fill="none" stroke="#f7f9fa" stroke-miterlimit="10" stroke-width="1.941"/>
                <circle id="Ellipse_56" data-name="Ellipse 56" cx="3.076" cy="3.076" r="3.076" transform="translate(11.956)" fill="none" stroke="#f7f9fa" stroke-miterlimit="10" stroke-width="1.941"/>
                <circle id="Ellipse_57" data-name="Ellipse 57" cx="3.076" cy="3.076" r="3.076" transform="translate(23.911)" fill="none" stroke="#f7f9fa" stroke-miterlimit="10" stroke-width="1.941"/>
              </g>
            </g>
          </g>
          <g id="Group_1853" data-name="Group 1853" transform="translate(0 0)">
            <g id="Group_1846" data-name="Group 1846" transform="translate(0 137.026)">
              <rect id="Rectangle_1619" data-name="Rectangle 1619" width="123.602" height="53.823" rx="6" fill="#e3e7ec"/>
              <g id="Group_1845" data-name="Group 1845" transform="translate(10.309 7.653)">
                <path id="Path_1865" data-name="Path 1865" d="M103.913,282.846a2.34,2.34,0,1,1-2.34-2.34A2.34,2.34,0,0,1,103.913,282.846Z" transform="translate(-99.232 -280.506)" fill="none" stroke="#f7f9fa" stroke-miterlimit="10" stroke-width="1.477"/>
                <circle id="Ellipse_58" data-name="Ellipse 58" cx="2.34" cy="2.34" r="2.34" transform="translate(9.096 0)" fill="none" stroke="#f7f9fa" stroke-miterlimit="10" stroke-width="1.477"/>
                <circle id="Ellipse_59" data-name="Ellipse 59" cx="2.34" cy="2.34" r="2.34" transform="translate(18.192 0)" fill="none" stroke="#f7f9fa" stroke-miterlimit="10" stroke-width="1.477"/>
              </g>
              <line id="Line_91" data-name="Line 91" x2="123.602" transform="translate(0 18.854)" fill="none" stroke="#f7f9fa" stroke-miterlimit="10" stroke-width="1.477"/>
            </g>
            <g id="Group_1848" data-name="Group 1848" transform="translate(294.58 3.736)">
              <rect id="Rectangle_1620" data-name="Rectangle 1620" width="64.778" height="55.16" rx="6" fill="#e3e7ec"/>
            </g>
            <g id="Group_1850" data-name="Group 1850" transform="translate(51.005)">
              <rect id="Rectangle_1623" data-name="Rectangle 1623" width="45.947" height="41.603" rx="6" fill="#f5e4d1"/>
              <g id="Group_1849" data-name="Group 1849" transform="translate(13.24 10.297)">
                <path id="Path_1867" data-name="Path 1867" d="M139.279,97.134a9.733,9.733,0,1,1,9.734-9.733A9.744,9.744,0,0,1,139.279,97.134Zm0-16.542a6.808,6.808,0,1,0,6.808,6.808A6.816,6.816,0,0,0,139.279,80.592Z" transform="translate(-129.546 -77.667)" fill="#f7f9fa"/>
                <line id="Line_92" data-name="Line 92" x1="11.162" y2="13.617" transform="translate(4.31 2.925)" fill="none" stroke="#f7f9fa" stroke-miterlimit="10" stroke-width="4.522"/>
              </g>
            </g>
            <g id="Group_1852" data-name="Group 1852" transform="translate(282.445 94.655)">
              <rect id="Rectangle_1624" data-name="Rectangle 1624" width="119.594" height="93.308" rx="6" fill="#f5e4d1"/>
            </g>
          </g>
          <g id="Group_1870" data-name="Group 1870" transform="translate(307.526 107.419)">
            <g id="Group_1870-2" data-name="Group 1870" transform="translate(0 0)">
              <path id="Path_1866" data-name="Path 1866" d="M557.3,135.351A24.848,24.848,0,1,1,582.151,110.5,24.875,24.875,0,0,1,557.3,135.351Zm0-44.066A19.218,19.218,0,1,0,576.52,110.5,19.239,19.239,0,0,0,557.3,91.285Z" transform="translate(-532.456 -85.655)" fill="#f7f9fa"/>
              <rect id="Rectangle_1621" data-name="Rectangle 1621" width="5.63" height="10.374" transform="translate(38.409 42.445) rotate(-45)" fill="#f7f9fa"/>
              <rect id="Rectangle_1622" data-name="Rectangle 1622" width="28.416" height="12.452" rx="2.892" transform="translate(61.999 70.859) rotate(-135)" fill="#f7f9fa"/>
            </g>
          </g>
        </g>
        <path id="Path_1896" data-name="Path 1896" d="M134.86,371.569,112.6,383.1l6.412,3.105-7.963,9.518,6.213,5.087,7.691-10.222,5.156,5.527Z" transform="translate(203.786 -354.429)" fill="#f7f9fa"/>
      </g>
    </g>
    <text id="No_Data" data-name="No Data" transform="translate(982.245 677)" fill="#c8c8c8" font-size="25" font-family="Helvetica"><tspan x="0" y="0">NO DATA</tspan></text>
  </g>
</svg>
