<svg xmlns="http://www.w3.org/2000/svg" width="80.196" height="65.144" viewBox="0 0 80.196 65.144">
  <g id="Group_8472" data-name="Group 8472" transform="translate(0 0)">
    <g id="Group_8479" data-name="Group 8479" transform="translate(0 0)">
      <g id="Group_8478" data-name="Group 8478">
        <path id="Path_2367" data-name="Path 2367" d="M69.8,5.05H3.423A3.433,3.433,0,0,0,0,8.473V55.889a3.433,3.433,0,0,0,3.423,3.423H69.8a3.433,3.433,0,0,0,3.423-3.423V8.473A3.433,3.433,0,0,0,69.8,5.05Z" transform="translate(0 -5.05)" fill="#ffc365"/>
        <path id="Path_2368" data-name="Path 2368" d="M7.174,55.889V8.473A3.433,3.433,0,0,1,10.6,5.05H3.423A3.433,3.433,0,0,0,0,8.473V55.889a3.433,3.433,0,0,0,3.423,3.423H10.6A3.433,3.433,0,0,1,7.174,55.889Z" transform="translate(0 -5.05)" fill="#ffa90f"/>
        <path id="Path_2369" data-name="Path 2369" d="M96.138,42.727a4.675,4.675,0,0,1-3.793-3.793.893.893,0,0,0-.878-.743H38.555a.893.893,0,0,0-.878.743,4.676,4.676,0,0,1-3.793,3.793.893.893,0,0,0-.743.878V77.561a.893.893,0,0,0,.743.878,4.676,4.676,0,0,1,3.793,3.793.893.893,0,0,0,.878.743H77.226l19.654-7.567v-31.8A.893.893,0,0,0,96.138,42.727Z" transform="translate(-28.402 -33.452)" fill="#dbedff"/>
        <path id="Path_2370" data-name="Path 2370" d="M44.851,82.231a4.676,4.676,0,0,0-3.793-3.793.893.893,0,0,1-.743-.878V43.6a.893.893,0,0,1,.743-.878,4.675,4.675,0,0,0,3.793-3.793.893.893,0,0,1,.878-.743H38.555a.893.893,0,0,0-.878.743,4.676,4.676,0,0,1-3.793,3.793.893.893,0,0,0-.743.878V77.56a.893.893,0,0,0,.743.878,4.676,4.676,0,0,1,3.793,3.793.893.893,0,0,0,.878.743h7.174A.893.893,0,0,1,44.851,82.231Z" transform="translate(-28.402 -33.451)" fill="#b5dcff"/>
        <path id="Path_2371" data-name="Path 2371" d="M198.064,87.9H178.871a1.672,1.672,0,0,0-1.672,1.672v1.394a1.672,1.672,0,0,0,1.672,1.672h19.193a1.672,1.672,0,0,0,1.672-1.672V89.574A1.672,1.672,0,0,0,198.064,87.9Z" transform="translate(-151.859 -76.054)" fill="#ff636e"/>
        <path id="Path_2372" data-name="Path 2372" d="M185.371,90.97V89.575a1.672,1.672,0,0,1,1.672-1.672h-8.172a1.672,1.672,0,0,0-1.672,1.672V90.97a1.672,1.672,0,0,0,1.672,1.672h8.172A1.672,1.672,0,0,1,185.371,90.97Z" transform="translate(-151.859 -76.055)" fill="#fd2a39"/>
        <g id="Group_8473" data-name="Group 8473" transform="translate(29.87 21.276)">
          <path id="Path_2373" data-name="Path 2373" d="M221.248,156.041H209.979a1.1,1.1,0,0,1,0-2.21h11.269a1.1,1.1,0,1,1,0,2.21Z" transform="translate(-208.874 -153.831)" fill="#8bcaff"/>
        </g>
        <g id="Group_8474" data-name="Group 8474" transform="translate(17.412 27.487)">
          <path id="Path_2374" data-name="Path 2374" d="M159.049,199.467H122.865a1.1,1.1,0,0,1,0-2.21h36.184a1.1,1.1,0,1,1,0,2.21Z" transform="translate(-121.76 -197.257)" fill="#8bcaff"/>
        </g>
        <g id="Group_8475" data-name="Group 8475" transform="translate(17.412 32.166)">
          <path id="Path_2375" data-name="Path 2375" d="M159.049,232.19H122.865a1.1,1.1,0,0,1,0-2.21h36.184a1.1,1.1,0,1,1,0,2.21Z" transform="translate(-121.76 -229.98)" fill="#8bcaff"/>
        </g>
        <g id="Group_8476" data-name="Group 8476" transform="translate(26.458 36.654)">
          <path id="Path_2376" data-name="Path 2376" d="M204.214,263.569H186.122a1.1,1.1,0,1,1,0-2.21h18.092a1.1,1.1,0,1,1,0,2.21Z" transform="translate(-185.017 -261.359)" fill="#8bcaff"/>
        </g>
      </g>
    </g>
    <g id="Group_8480" data-name="Group 8480" transform="translate(46 30.948)">
      <path id="Path_2357" data-name="Path 2357" d="M28.1,45.2A17.1,17.1,0,1,1,45.2,28.1,17.118,17.118,0,0,1,28.1,45.2Z" transform="translate(-11 -11)" fill="#f44336"/>
      <path id="Path_2358" data-name="Path 2358" d="M25.7,21.984l2.744-2.744a2.63,2.63,0,1,0-3.72-3.72l-2.744,2.744-2.744-2.744a2.63,2.63,0,1,0-3.72,3.72l2.744,2.744-2.744,2.744a2.63,2.63,0,1,0,3.72,3.72L21.984,25.7l2.744,2.744a2.63,2.63,0,1,0,3.72-3.72Z" transform="translate(-4.886 -4.886)" fill="#fff"/>
      <path id="Path_2359" data-name="Path 2359" d="M28.1,11a17.1,17.1,0,0,0,0,34.2V31.818l-2.744,2.744a2.63,2.63,0,0,1-3.72-3.72L24.379,28.1l-2.744-2.744a2.63,2.63,0,1,1,3.72-3.72L28.1,24.379Z" transform="translate(-11 -11)" fill="#d43a2f"/>
      <path id="Path_2360" data-name="Path 2360" d="M17.381,14.75a2.63,2.63,0,0,0-1.86,4.49l2.744,2.744-2.744,2.744a2.63,2.63,0,1,0,3.72,3.72L21.984,25.7V18.264l-2.744-2.744a2.623,2.623,0,0,0-1.86-.771Z" transform="translate(-4.886 -4.886)" fill="#dedede"/>
    </g>
  </g>
</svg>
